<?xml version="1.0" encoding="utf-8"?>
<svg width="17.749" height="29.882" viewBox="0 0 17.749 29.882" fill="none" xmlns="http://www.w3.org/2000/svg">
  <g id="coinslot">
    <path id="Path" d="M13.8681 29.8821C13.8681 29.8821 3.88099 29.8821 3.88099 29.8821C1.73895 29.8821 0 28.1485 0 26.0129C0 26.0129 0 3.86922 0 3.86922C0 1.73362 1.73895 0 3.88099 0C3.88099 0 13.8681 0 13.8681 0C16.0101 0 17.7491 1.73368 17.7491 3.86922C17.7491 3.86922 17.7491 26.0129 17.7491 26.0129C17.7492 28.1524 16.0141 29.8821 13.8681 29.8821C13.8681 29.8821 13.8681 29.8821 13.8681 29.8821Z" fill="#686869" fill-rule="evenodd" />
    <rect id="Rectangle" width="11.849" height="2.1" fill="#111B1D" fill-rule="evenodd" transform="translate(2.707 12.841)" />
  </g>
</svg>