<?xml version="1.0" encoding="utf-8"?>
<svg width="25" height="148" viewBox="0 0 25 148" fill="none" xmlns="http://www.w3.org/2000/svg">
  <g>
    <rect width="25" height="148" />
    <rect id="sideback" width="25" height="148" />
    <rect id="changeout" width="17.378" height="9.973" fill="#1F3035" fill-rule="evenodd" transform="translate(3.423 137.825)" />
    <g id="keypad" transform="translate(3.482 50.597)">
      <rect id="Rectangle" width="17.749" height="29.882" fill="#686869" fill-rule="evenodd" />
      <rect id="Rectangle" width="3.581" height="3.57" fill="#111B1D" fill-rule="evenodd" transform="translate(2.45 9.385)" />
      <rect id="Rectangle" width="3.581" height="3.57" fill="#111B1D" fill-rule="evenodd" transform="translate(7.082 9.385)" />
      <rect id="Rectangle" width="3.581" height="3.57" fill="#111B1D" fill-rule="evenodd" transform="translate(11.718 9.385)" />
      <rect id="Rectangle" width="3.581" height="3.57" fill="#111B1D" fill-rule="evenodd" transform="translate(2.45 13.897)" />
      <rect id="Rectangle" width="3.581" height="3.57" fill="#111B1D" fill-rule="evenodd" transform="translate(7.082 13.897)" />
      <rect id="Rectangle" width="3.581" height="3.57" fill="#111B1D" fill-rule="evenodd" transform="translate(11.718 13.897)" />
      <rect id="Rectangle" width="3.581" height="3.57" fill="#111B1D" fill-rule="evenodd" transform="translate(2.45 18.408)" />
      <rect id="Rectangle" width="3.581" height="3.57" fill="#111B1D" fill-rule="evenodd" transform="translate(7.082 18.408)" />
      <rect id="Rectangle" width="3.581" height="3.57" fill="#111B1D" fill-rule="evenodd" transform="translate(11.718 18.408)" />
      <rect id="Rectangle" width="3.581" height="3.57" fill="#111B1D" fill-rule="evenodd" transform="translate(2.45 22.92)" />
      <rect id="Rectangle" width="3.581" height="3.57" fill="#111B1D" fill-rule="evenodd" transform="translate(7.082 22.92)" />
      <rect id="Rectangle" width="3.581" height="3.57" fill="#111B1D" fill-rule="evenodd" transform="translate(11.718 22.92)" />
      <rect id="Rectangle" width="11.631" height="4.815" fill="#C0BCB6" fill-rule="evenodd" transform="translate(2.814 1.777)" />
    </g>
    <g id="coinslot" transform="translate(3.482 102.994)">
      <path id="Path" d="M13.8681 29.8821C13.8681 29.8821 3.88099 29.8821 3.88099 29.8821C1.73895 29.8821 0 28.1485 0 26.0129C0 26.0129 0 3.86922 0 3.86922C0 1.73362 1.73895 0 3.88099 0C3.88099 0 13.8681 0 13.8681 0C16.0101 0 17.7491 1.73368 17.7491 3.86922C17.7491 3.86922 17.7491 26.0129 17.7491 26.0129C17.7492 28.1524 16.0141 29.8821 13.8681 29.8821C13.8681 29.8821 13.8681 29.8821 13.8681 29.8821Z" fill="#686869" fill-rule="evenodd" />
      <rect id="Rectangle" width="11.849" height="2.1" fill="#111B1D" fill-rule="evenodd" transform="translate(2.707 12.841)" />
    </g>
    <rect id="coindisplay" width="23" height="10" fill="#686869" fill-rule="evenodd" transform="translate(1 24.482)" />
    <rect id="statusdisplay" width="24.318" height="15.406" fill="#686869" fill-rule="evenodd" transform="translate(0.198 0.482)" />
  </g>
</svg>